<svg width="300" height="64" viewBox="0 0 300 64" fill="none" xmlns="http://www.w3.org/2000/svg">
<rect width="300" height="64" rx="10" fill="#4AC959"/>
<path d="M68.8452 36.64C67.7652 37.264 66.5892 37.504 65.3892 37.504C61.8372 37.504 59.3172 35.008 59.3172 31.6C59.3172 28.12 61.8372 25.696 65.4132 25.696C67.2132 25.696 68.7252 26.296 70.0452 27.616L72.0132 25.696C70.4292 23.896 68.0772 22.96 65.2692 22.96C60.0132 22.96 56.1732 26.584 56.1732 31.6C56.1732 36.616 60.0132 40.24 65.2212 40.24C67.5972 40.24 70.0452 39.52 71.7972 38.104V31.408H68.8452V36.64ZM81.3843 40.168C85.3683 40.168 88.2243 37.432 88.2243 33.592C88.2243 29.752 85.3683 27.04 81.3843 27.04C77.4483 27.04 74.5683 29.752 74.5683 33.592C74.5683 37.432 77.4483 40.168 81.3843 40.168ZM81.3843 37.6C79.2243 37.6 77.5923 36.04 77.5923 33.592C77.5923 31.144 79.2243 29.584 81.3843 29.584C83.5683 29.584 85.2003 31.144 85.2003 33.592C85.2003 36.04 83.5683 37.6 81.3843 37.6ZM104.59 37.168C104.134 37.528 103.534 37.696 102.91 37.696C101.758 37.696 101.134 37.024 101.134 35.776V29.68H104.566V27.28H101.134V24.352H98.1338V27.28H96.0218V29.68H98.1338V35.848C98.1338 38.68 99.7418 40.168 102.55 40.168C103.63 40.168 104.71 39.88 105.43 39.304L104.59 37.168ZM113.236 40.168C117.22 40.168 120.076 37.432 120.076 33.592C120.076 29.752 117.22 27.04 113.236 27.04C109.3 27.04 106.42 29.752 106.42 33.592C106.42 37.432 109.3 40.168 113.236 40.168ZM113.236 37.6C111.076 37.6 109.444 36.04 109.444 33.592C109.444 31.144 111.076 29.584 113.236 29.584C115.42 29.584 117.052 31.144 117.052 33.592C117.052 36.04 115.42 37.6 113.236 37.6ZM133.273 40H136.393V25.84H141.961V23.2H127.705V25.84H133.273V40ZM148.462 40.168C152.446 40.168 155.302 37.432 155.302 33.592C155.302 29.752 152.446 27.04 148.462 27.04C144.526 27.04 141.646 29.752 141.646 33.592C141.646 37.432 144.526 40.168 148.462 40.168ZM148.462 37.6C146.302 37.6 144.67 36.04 144.67 33.592C144.67 31.144 146.302 29.584 148.462 29.584C150.646 29.584 152.278 31.144 152.278 33.592C152.278 36.04 150.646 37.6 148.462 37.6ZM157.758 34.576H164.358V32.08H157.758V34.576ZM177.426 22.192V28.768C176.418 27.592 174.954 27.04 173.298 27.04C169.578 27.04 166.818 29.608 166.818 33.592C166.818 37.576 169.578 40.168 173.298 40.168C175.05 40.168 176.538 39.568 177.546 38.344V40H180.426V22.192H177.426ZM173.658 37.6C171.498 37.6 169.842 36.04 169.842 33.592C169.842 31.144 171.498 29.584 173.658 29.584C175.818 29.584 177.474 31.144 177.474 33.592C177.474 36.04 175.818 37.6 173.658 37.6ZM190.111 40.168C194.095 40.168 196.951 37.432 196.951 33.592C196.951 29.752 194.095 27.04 190.111 27.04C186.175 27.04 183.295 29.752 183.295 33.592C183.295 37.432 186.175 40.168 190.111 40.168ZM190.111 37.6C187.951 37.6 186.319 36.04 186.319 33.592C186.319 31.144 187.951 29.584 190.111 29.584C192.295 29.584 193.927 31.144 193.927 33.592C193.927 36.04 192.295 37.6 190.111 37.6ZM206.452 40H209.452V22.192H206.452V40ZM214.902 25.072C216.03 25.072 216.822 24.256 216.822 23.2C216.822 22.216 216.006 21.472 214.902 21.472C213.798 21.472 212.982 22.264 212.982 23.272C212.982 24.28 213.798 25.072 214.902 25.072ZM213.39 40H216.39V27.184H213.39V40ZM224.287 40.168C227.887 40.168 230.095 38.608 230.095 36.208C230.095 31.192 222.175 33.496 222.175 30.904C222.175 30.064 223.039 29.464 224.863 29.464C226.087 29.464 227.311 29.704 228.535 30.424L229.687 28.144C228.535 27.448 226.591 27.04 224.887 27.04C221.431 27.04 219.247 28.624 219.247 31.048C219.247 36.16 227.167 33.856 227.167 36.304C227.167 37.192 226.375 37.72 224.479 37.72C222.871 37.72 221.143 37.192 220.015 36.448L218.863 38.728C220.015 39.544 222.151 40.168 224.287 40.168ZM239.543 37.168C239.087 37.528 238.487 37.696 237.863 37.696C236.711 37.696 236.087 37.024 236.087 35.776V29.68H239.519V27.28H236.087V24.352H233.087V27.28H230.975V29.68H233.087V35.848C233.087 38.68 234.695 40.168 237.503 40.168C238.583 40.168 239.663 39.88 240.383 39.304L239.543 37.168Z" fill="white"/>
</svg>
