<svg width="431" height="139" viewBox="0 0 431 139" fill="none" xmlns="http://www.w3.org/2000/svg">
<path d="M35.76 63.96C53.36 63.96 66.4 51.72 66.4 35C66.4 18.28 53.36 6.04 35.76 6.04C18.08 6.04 5.12 18.36 5.12 35C5.12 51.64 18.08 63.96 35.76 63.96ZM35.76 52.92C25.76 52.92 18.24 45.64 18.24 35C18.24 24.36 25.76 17.08 35.76 17.08C45.76 17.08 53.28 24.36 53.28 35C53.28 45.64 45.76 52.92 35.76 52.92ZM87.18 25.64V19.96H75.26V63H87.74V42.68C87.74 34.44 92.3 30.68 99.18 30.68C100.14 30.68 100.94 30.76 101.98 30.84V19.32C95.34 19.32 90.22 21.48 87.18 25.64ZM141.57 19.96V25.48C138.29 21.32 133.33 19.32 127.33 19.32C115.41 19.32 105.81 27.56 105.81 40.12C105.81 52.68 115.41 60.92 127.33 60.92C132.93 60.92 137.65 59.16 140.93 55.56V57.4C140.93 65.16 137.09 69.16 128.29 69.16C122.77 69.16 116.77 67.24 113.09 64.28L108.13 73.24C113.17 77.16 121.09 79.16 129.25 79.16C144.77 79.16 153.41 71.8 153.41 55.8V19.96H141.57ZM129.81 50.68C123.25 50.68 118.45 46.44 118.45 40.12C118.45 33.8 123.25 29.56 129.81 29.56C136.37 29.56 141.09 33.8 141.09 40.12C141.09 46.44 136.37 50.68 129.81 50.68ZM182.386 19.32C175.506 19.32 168.546 21.16 163.826 24.52L168.306 33.24C171.426 30.76 176.146 29.24 180.706 29.24C187.426 29.24 190.626 32.36 190.626 37.72H180.706C167.586 37.72 162.226 43 162.226 50.6C162.226 58.04 168.226 63.64 178.306 63.64C184.626 63.64 189.106 61.56 191.426 57.64V63H203.106V38.44C203.106 25.4 195.506 19.32 182.386 19.32ZM181.426 55.24C177.026 55.24 174.386 53.16 174.386 50.04C174.386 47.16 176.226 45 182.066 45H190.626V49.4C189.186 53.32 185.586 55.24 181.426 55.24ZM240.561 19.32C234.721 19.32 229.681 21.32 226.321 25V19.96H214.401V63H226.881V41.72C226.881 33.8 231.201 30.12 237.201 30.12C242.721 30.12 245.921 33.32 245.921 40.28V63H258.401V38.36C258.401 25.24 250.721 19.32 240.561 19.32ZM275.953 13.96C280.593 13.96 283.713 10.92 283.713 6.76C283.713 2.92 280.593 0.0399952 275.953 0.0399952C271.313 0.0399952 268.193 3.08 268.193 7C268.193 10.92 271.313 13.96 275.953 13.96ZM269.713 63H282.193V19.96H269.713V63ZM306.576 53.4L328.496 27.48V19.96H291.376V29.56H312.736L290.816 55.48V63H329.216V53.4H306.576ZM378.826 41.64C378.826 27.8 369.066 19.32 356.426 19.32C343.306 19.32 333.466 28.6 333.466 41.48C333.466 54.28 343.146 63.64 358.026 63.64C365.786 63.64 371.786 61.24 375.786 56.68L369.146 49.48C366.186 52.28 362.906 53.64 358.346 53.64C351.786 53.64 347.226 50.36 346.026 45H378.586C378.666 43.96 378.826 42.6 378.826 41.64ZM356.506 28.76C362.106 28.76 366.186 32.28 367.066 37.72H345.866C346.746 32.2 350.826 28.76 356.506 28.76Z" fill="black"/>
<path d="M30.26 95.44L18.38 122.26L6.5 95.44H2.06L16.16 126.94L14.78 130C12.98 133.96 11.06 135.28 8.24 135.28C5.96 135.28 4.04 134.44 2.48 132.88L0.5 136.06C2.42 137.98 5.24 138.94 8.18 138.94C12.68 138.94 16.04 136.96 18.68 130.78L34.46 95.44H30.26ZM52.4806 127.3C61.7206 127.3 68.5006 120.58 68.5006 111.22C68.5006 101.86 61.7206 95.2 52.4806 95.2C43.2406 95.2 36.4006 101.86 36.4006 111.22C36.4006 120.58 43.2406 127.3 52.4806 127.3ZM52.4806 123.52C45.7606 123.52 40.7206 118.6 40.7206 111.22C40.7206 103.84 45.7606 98.92 52.4806 98.92C59.2006 98.92 64.1806 103.84 64.1806 111.22C64.1806 118.6 59.2006 123.52 52.4806 123.52ZM101.378 95.44V112C101.378 119.2 97.2378 123.46 90.6378 123.46C84.6378 123.46 81.1578 120.04 81.1578 113.32V95.44H76.8978V113.74C76.8978 122.8 82.1778 127.3 90.2178 127.3C95.2578 127.3 99.3378 125.08 101.558 121.24V127H105.638V95.44H101.378ZM121.649 101.62V95.44H117.569V127H121.829V110.92C121.829 103.48 125.849 99.28 132.449 99.28C132.749 99.28 133.109 99.34 133.469 99.34V95.2C127.649 95.2 123.629 97.42 121.649 101.62ZM181.894 82.48V101.44C179.254 97.36 174.934 95.2 169.894 95.2C160.894 95.2 154.174 101.68 154.174 111.22C154.174 120.76 160.894 127.3 169.894 127.3C175.114 127.3 179.494 125.02 182.074 120.76V127H186.154V82.48H181.894ZM170.254 123.52C163.534 123.52 158.494 118.6 158.494 111.22C158.494 103.84 163.534 98.92 170.254 98.92C176.914 98.92 181.954 103.84 181.954 111.22C181.954 118.6 176.914 123.52 170.254 123.52ZM209.058 95.2C204.078 95.2 199.398 96.76 196.218 99.46L198.138 102.64C200.718 100.36 204.558 98.92 208.638 98.92C214.518 98.92 217.578 101.86 217.578 107.26V109.18H207.558C198.498 109.18 195.378 113.26 195.378 118.12C195.378 123.58 199.758 127.3 206.898 127.3C212.118 127.3 215.838 125.32 217.758 122.08V127H221.838V107.44C221.838 99.28 217.218 95.2 209.058 95.2ZM207.558 123.94C202.518 123.94 199.578 121.66 199.578 118C199.578 114.76 201.558 112.36 207.678 112.36H217.578V117.52C215.898 121.66 212.358 123.94 207.558 123.94ZM235.569 88.54C237.369 88.54 238.689 87.16 238.689 85.42C238.689 83.8 237.309 82.48 235.569 82.48C233.829 82.48 232.449 83.86 232.449 85.48C232.449 87.16 233.829 88.54 235.569 88.54ZM233.409 127H237.669V95.44H233.409V127ZM249.522 127H253.782V82.48H249.522V127ZM287.955 95.44L276.075 122.26L264.195 95.44H259.755L273.855 126.94L272.475 130C270.675 133.96 268.755 135.28 265.935 135.28C263.655 135.28 261.735 134.44 260.175 132.88L258.195 136.06C260.115 137.98 262.935 138.94 265.875 138.94C270.375 138.94 273.735 136.96 276.375 130.78L292.155 95.44H287.955ZM316.318 88.54C318.118 88.54 319.438 87.16 319.438 85.42C319.438 83.8 318.058 82.48 316.318 82.48C314.578 82.48 313.198 83.86 313.198 85.48C313.198 87.16 314.578 88.54 316.318 88.54ZM309.178 138.94C315.178 138.94 318.418 135.16 318.418 129.34V95.44H314.158V129.34C314.158 133.24 312.298 135.28 308.938 135.28C306.958 135.28 305.278 134.74 304.018 133.66L302.518 136.9C304.078 138.28 306.658 138.94 309.178 138.94ZM343.223 127.3C352.463 127.3 359.243 120.58 359.243 111.22C359.243 101.86 352.463 95.2 343.223 95.2C333.983 95.2 327.143 101.86 327.143 111.22C327.143 120.58 333.983 127.3 343.223 127.3ZM343.223 123.52C336.503 123.52 331.463 118.6 331.463 111.22C331.463 103.84 336.503 98.92 343.223 98.92C349.943 98.92 354.923 103.84 354.923 111.22C354.923 118.6 349.943 123.52 343.223 123.52ZM384.2 95.2C379.16 95.2 374.84 97.36 372.2 101.44V82.48H367.94V127H372.02V120.76C374.6 125.02 378.98 127.3 384.2 127.3C393.2 127.3 399.92 120.76 399.92 111.22C399.92 101.68 393.2 95.2 384.2 95.2ZM383.9 123.52C377.18 123.52 372.14 118.6 372.14 111.22C372.14 103.84 377.18 98.92 383.9 98.92C390.56 98.92 395.66 103.84 395.66 111.22C395.66 118.6 390.56 123.52 383.9 123.52ZM417.064 127.3C425.284 127.3 430.084 123.76 430.084 118.3C430.084 106.18 409.624 112.6 409.624 104.08C409.624 101.08 412.144 98.86 417.844 98.86C421.084 98.86 424.384 99.64 427.144 101.56L429.004 98.14C426.364 96.34 421.924 95.2 417.844 95.2C409.804 95.2 405.364 99.04 405.364 104.2C405.364 116.68 425.824 110.2 425.824 118.42C425.824 121.54 423.364 123.58 417.364 123.58C412.924 123.58 408.664 122.02 406.144 120.04L404.224 123.4C406.804 125.62 411.844 127.3 417.064 127.3Z" fill="#4AC959"/>
</svg>
