<svg width="374" height="80" viewBox="0 0 374 80" fill="none" xmlns="http://www.w3.org/2000/svg">
<path d="M30.76 63.96C48.36 63.96 61.4 51.72 61.4 35C61.4 18.28 48.36 6.04 30.76 6.04C13.08 6.04 0.12 18.36 0.12 35C0.12 51.64 13.08 63.96 30.76 63.96ZM30.76 52.92C20.76 52.92 13.24 45.64 13.24 35C13.24 24.36 20.76 17.08 30.76 17.08C40.76 17.08 48.28 24.36 48.28 35C48.28 45.64 40.76 52.92 30.76 52.92ZM82.18 25.64V19.96H70.26V63H82.74V42.68C82.74 34.44 87.3 30.68 94.18 30.68C95.14 30.68 95.94 30.76 96.98 30.84V19.32C90.34 19.32 85.22 21.48 82.18 25.64ZM136.57 19.96V25.48C133.29 21.32 128.33 19.32 122.33 19.32C110.41 19.32 100.81 27.56 100.81 40.12C100.81 52.68 110.41 60.92 122.33 60.92C127.93 60.92 132.65 59.16 135.93 55.56V57.4C135.93 65.16 132.09 69.16 123.29 69.16C117.77 69.16 111.77 67.24 108.09 64.28L103.13 73.24C108.17 77.16 116.09 79.16 124.25 79.16C139.77 79.16 148.41 71.8 148.41 55.8V19.96H136.57ZM124.81 50.68C118.25 50.68 113.45 46.44 113.45 40.12C113.45 33.8 118.25 29.56 124.81 29.56C131.37 29.56 136.09 33.8 136.09 40.12C136.09 46.44 131.37 50.68 124.81 50.68ZM177.386 19.32C170.506 19.32 163.546 21.16 158.826 24.52L163.306 33.24C166.426 30.76 171.146 29.24 175.706 29.24C182.426 29.24 185.626 32.36 185.626 37.72H175.706C162.586 37.72 157.226 43 157.226 50.6C157.226 58.04 163.226 63.64 173.306 63.64C179.626 63.64 184.106 61.56 186.426 57.64V63H198.106V38.44C198.106 25.4 190.506 19.32 177.386 19.32ZM176.426 55.24C172.026 55.24 169.386 53.16 169.386 50.04C169.386 47.16 171.226 45 177.066 45H185.626V49.4C184.186 53.32 180.586 55.24 176.426 55.24ZM235.561 19.32C229.721 19.32 224.681 21.32 221.321 25V19.96H209.401V63H221.881V41.72C221.881 33.8 226.201 30.12 232.201 30.12C237.721 30.12 240.921 33.32 240.921 40.28V63H253.401V38.36C253.401 25.24 245.721 19.32 235.561 19.32ZM270.953 13.96C275.593 13.96 278.713 10.92 278.713 6.76C278.713 2.92 275.593 0.0399952 270.953 0.0399952C266.313 0.0399952 263.193 3.08 263.193 7C263.193 10.92 266.313 13.96 270.953 13.96ZM264.713 63H277.193V19.96H264.713V63ZM301.576 53.4L323.496 27.48V19.96H286.376V29.56H307.736L285.816 55.48V63H324.216V53.4H301.576ZM373.826 41.64C373.826 27.8 364.066 19.32 351.426 19.32C338.306 19.32 328.466 28.6 328.466 41.48C328.466 54.28 338.146 63.64 353.026 63.64C360.786 63.64 366.786 61.24 370.786 56.68L364.146 49.48C361.186 52.28 357.906 53.64 353.346 53.64C346.786 53.64 342.226 50.36 341.026 45H373.586C373.666 43.96 373.826 42.6 373.826 41.64ZM351.506 28.76C357.106 28.76 361.186 32.28 362.066 37.72H340.866C341.746 32.2 345.826 28.76 351.506 28.76Z" fill="black"/>
</svg>
